HIERARCHY
ROOT pelvis
{
	OFFSET 0.000000 0.000000 0.000000
	CHANNELS 6 Xposition Yposition Zposition Xrotation Yrotation Zrotation
	JOINT l_hip
	{
		OFFSET 0.195211 -0.245059 -0.022011
		CHANNELS 3 Xrotation Yrotation Zrotation
		JOINT l_knee
		{
			OFFSET 0.083896 -0.996307 -0.018298
			CHANNELS 3 Xrotation Yrotation Zrotation
			JOINT l_ankle
			{
				OFFSET -0.031606 -1.048662 -0.119000
				CHANNELS 3 Xrotation Yrotation Zrotation
				JOINT l_foot
				{
					OFFSET 0.063841 -0.149483 0.312863
					CHANNELS 3 Xrotation Yrotation Zrotation
					End Site
					{
						OFFSET 0.000000 0.000000 0.000000
					}
				}
			}
		}
	}
	JOINT r_hip
	{
		OFFSET -0.188785 -0.243354 -0.013119
		CHANNELS 3 Xrotation Yrotation Zrotation
		JOINT r_knee
		{
			OFFSET -0.098896 -1.013926 -0.025127
			CHANNELS 3 Xrotation Yrotation Zrotation
			JOINT r_ankle
			{
				OFFSET 0.038376 -1.049454 -0.114596
				CHANNELS 3 Xrotation Yrotation Zrotation
				JOINT r_foot
				{
					OFFSET -0.060300 -0.126955 0.322518
					CHANNELS 3 Xrotation Yrotation Zrotation
					End Site
					{
						OFFSET 0.000000 0.000000 0.000000
					}
				}
			}
		}
	}
	JOINT spine1
	{
		OFFSET -0.006861 0.282462 -0.060688
		CHANNELS 3 Xrotation Yrotation Zrotation
		JOINT spine2
		{
			OFFSET 0.009796 0.349212 -0.004686
			CHANNELS 3 Xrotation Yrotation Zrotation
			JOINT spine3
			{
				OFFSET 0.005545 0.134239 0.076232
				CHANNELS 3 Xrotation Yrotation Zrotation
				JOINT neck
				{
					OFFSET -0.005369 0.569656 -0.136135
					CHANNELS 3 Xrotation Yrotation Zrotation
					JOINT head
					{
						OFFSET 0.009621 0.170484 0.137338
						CHANNELS 3 Xrotation Yrotation Zrotation
						End Site
						{
							OFFSET 0.000000 0.000000 0.000000
						}
					}
				}
				JOINT l_collar
				{
					OFFSET 0.205981 0.322192 -0.100872
					CHANNELS 3 Xrotation Yrotation Zrotation
					JOINT l_shoulder
					{
						OFFSET 0.233388 0.086823 -0.019950
						CHANNELS 3 Xrotation Yrotation Zrotation
						JOINT l_elbow
						{
							OFFSET 0.687295 -0.032736 -0.075278
							CHANNELS 3 Xrotation Yrotation Zrotation
							JOINT l_wrist
							{
								OFFSET 0.651109 0.024639 0.000120
								CHANNELS 3 Xrotation Yrotation Zrotation
								JOINT l_hand
								{
									OFFSET 0.217934 -0.026487 -0.036124
									CHANNELS 3 Xrotation Yrotation Zrotation
									End Site
									{
										OFFSET 0.000000 0.000000 0.000000
									}
								}
							}
						}
					}
				}
				JOINT r_collar
				{
					OFFSET -0.210726 0.316244 -0.114374
					CHANNELS 3 Xrotation Yrotation Zrotation
					JOINT r_shoulder
					{
						OFFSET -0.244017 0.089684 -0.026814
						CHANNELS 3 Xrotation Yrotation Zrotation
						JOINT r_elbow
						{
							OFFSET -0.672913 -0.035979 -0.055153
							CHANNELS 3 Xrotation Yrotation Zrotation
							JOINT r_wrist
							{
								OFFSET -0.670689 0.023586 -0.009661
								CHANNELS 3 Xrotation Yrotation Zrotation
								JOINT r_hand
								{
									OFFSET -0.219937 -0.019827 -0.028502
									CHANNELS 3 Xrotation Yrotation Zrotation
									End Site
									{
										OFFSET 0.000000 0.000000 0.000000
									}
								}
							}
						}
					}
				}
			}
		}
	}
}
MOTION
Frames: 8
Frame Time: 0.016667
0.000000 0.000000 0.000000 0.000000 0.000000 0.000000 -12.544709 -1.208039 -0.408938 1.212046 14.810331 -4.687526 0.000000 0.000000 0.000000 0.000000 0.000000 0.000000 14.161394 -2.474949 1.183422 28.844780 8.247274 0.297170 0.000000 0.000000 0.000000 0.000000 0.000000 0.000000 9.107842 0.239733 -0.648407 6.712091 -4.794391 -4.879041 5.603273 -2.547509 -1.250326 -19.059813 20.215778 -1.268300 1.250750 19.114764 -13.226342 -4.610220 -9.426118 -15.984252 -3.787499 -31.023690 -63.152220 139.063777 -79.199557 151.830070 0.000000 0.000000 0.000000 0.000000 0.000000 0.000000 -8.140468 16.922730 6.863854 -9.717154 46.315226 52.388486 18.351881 83.521340 -20.060625 0.000000 0.000000 0.000000 0.000000 0.000000 0.000000 
0.000000 0.000000 0.000000 0.000000 0.000000 0.000000 -13.347646 -1.375831 -0.543000 1.499270 15.204849 -4.602090 0.000000 0.000000 0.000000 0.000000 0.000000 0.000000 14.971075 -2.629413 1.369373 26.891024 8.189194 0.147900 0.000000 0.000000 0.000000 0.000000 0.000000 0.000000 9.043744 0.465098 -0.091889 6.831034 -4.651759 -4.822200 5.785811 -2.340824 -1.197298 -18.839784 20.206942 -1.288927 1.427476 19.114222 -13.571311 -4.455159 -8.566704 -16.406175 -2.713246 -30.319126 -62.223157 137.752608 -79.909528 150.510715 0.000000 0.000000 0.000000 0.000000 0.000000 0.000000 -8.082860 16.874860 7.421533 -9.650837 46.604142 51.350137 13.942868 81.301030 -14.528231 0.000000 0.000000 0.000000 0.000000 0.000000 0.000000 
0.000000 0.000000 0.000000 0.000000 0.000000 0.000000 -13.682406 -1.261559 -0.514954 1.565181 15.354786 -4.433043 0.000000 0.000000 0.000000 0.000000 0.000000 0.000000 15.493059 -2.867804 1.414033 25.500161 7.987598 0.431873 0.000000 0.000000 0.000000 0.000000 0.000000 0.000000 9.453040 0.690689 0.626678 6.859695 -4.345665 -4.741447 5.879893 -2.049378 -1.066828 -18.527970 20.119504 -1.288470 1.598720 19.095354 -13.925922 -4.357133 -7.714660 -16.821192 -1.711020 -29.361415 -61.386547 129.708783 -81.125424 142.290886 0.000000 0.000000 0.000000 0.000000 0.000000 0.000000 -7.865132 16.962723 7.804705 -9.651420 46.525243 50.159474 10.005999 78.605873 -9.513543 0.000000 0.000000 0.000000 0.000000 0.000000 0.000000 
0.000000 0.000000 0.000000 0.000000 0.000000 0.000000 -13.663967 -1.087614 -0.558512 1.507750 15.274969 -4.116285 0.000000 0.000000 0.000000 0.000000 0.000000 0.000000 16.383323 -3.060191 1.642169 23.792703 7.755931 0.443523 0.000000 0.000000 0.000000 0.000000 0.000000 0.000000 10.016274 0.914267 1.260633 6.898257 -4.143461 -4.536707 6.013394 -1.803650 -0.846992 -18.002091 20.004554 -1.397606 1.487442 19.090532 -14.190055 -4.151319 -6.812404 -16.876003 -0.771305 -28.307628 -60.810325 115.896229 -81.995825 127.835757 0.000000 0.000000 0.000000 0.000000 0.000000 0.000000 -7.818464 16.906313 8.215040 -9.991427 46.503736 49.707678 9.552907 75.114406 -7.535867 0.000000 0.000000 0.000000 0.000000 0.000000 0.000000 
0.000000 0.000000 0.000000 0.000000 0.000000 0.000000 -13.914103 -0.948723 -0.481828 1.702993 15.081185 -4.019983 0.000000 0.000000 0.000000 0.000000 0.000000 0.000000 16.663234 -3.064172 1.986909 22.691308 7.864572 0.232712 0.000000 0.000000 0.000000 0.000000 0.000000 0.000000 10.316648 1.161696 1.676959 7.028351 -3.894833 -4.184085 6.227946 -1.532787 -0.592030 -17.578880 20.088804 -1.281748 1.263019 18.966774 -14.276693 -3.907140 -6.006647 -16.560967 0.366865 -27.238909 -59.935671 100.987469 -82.603668 111.879567 0.000000 0.000000 0.000000 0.000000 0.000000 0.000000 -7.780919 16.798329 8.549189 -10.303562 46.419224 49.403187 7.447095 71.538516 -4.072449 0.000000 0.000000 0.000000 0.000000 0.000000 0.000000 
0.000000 0.000000 0.000000 0.000000 0.000000 0.000000 -14.284733 -0.867387 -0.485326 1.978513 15.032608 -4.147164 0.000000 0.000000 0.000000 0.000000 0.000000 0.000000 16.380227 -2.804159 2.218278 22.184097 8.175533 -0.095118 0.000000 0.000000 0.000000 0.000000 0.000000 0.000000 10.496917 1.277609 1.971595 7.054409 -3.543571 -3.917694 6.500722 -1.356457 -0.362671 -17.334348 20.119683 -0.921809 1.226669 18.920123 -14.438518 -3.648202 -5.220979 -16.519640 1.194692 -26.544385 -59.523749 86.356412 -83.387190 96.660291 0.000000 0.000000 0.000000 0.000000 0.000000 0.000000 -7.743885 16.748821 8.923111 -10.664314 46.546145 48.973829 2.226031 67.412953 2.054580 0.000000 0.000000 0.000000 0.000000 0.000000 0.000000 
0.000000 0.000000 0.000000 0.000000 0.000000 0.000000 -14.727505 -1.025853 -0.524870 2.750495 14.497637 -4.326406 0.000000 0.000000 0.000000 0.000000 0.000000 0.000000 16.259232 -2.658445 2.378521 21.662905 8.629420 -0.390795 0.000000 0.000000 0.000000 0.000000 0.000000 0.000000 10.618806 1.406889 2.066762 7.108671 -3.312397 -3.631323 6.861426 -1.219801 -0.101798 -17.183482 20.092807 -0.358148 1.036545 18.966622 -14.382451 -3.293225 -4.593632 -16.363136 2.028312 -25.747378 -58.820955 71.062172 -84.030907 80.943944 0.000000 0.000000 0.000000 0.000000 0.000000 0.000000 -7.607929 16.754806 9.088323 -10.737735 46.428549 48.011377 -2.649378 63.253858 7.456319 0.000000 0.000000 0.000000 0.000000 0.000000 0.000000 
0.000000 0.000000 0.000000 0.000000 0.000000 0.000000 -15.458690 -1.103109 -0.479858 4.032280 14.318675 -4.720049 0.000000 0.000000 0.000000 0.000000 0.000000 0.000000 16.276170 -2.630100 2.410271 20.985882 8.968973 -0.557959 0.000000 0.000000 0.000000 0.000000 0.000000 0.000000 10.722520 1.440271 2.198992 7.153574 -3.232432 -3.347535 7.184106 -1.214457 0.204387 -17.015007 20.073140 0.043700 0.569821 19.265513 -14.341306 -2.621606 -3.984158 -16.089912 3.081884 -24.698378 -58.173325 60.342338 -84.377710 69.914282 0.000000 0.000000 0.000000 0.000000 0.000000 0.000000 -7.423680 16.826375 8.995751 -10.952343 46.228107 47.016563 -7.317923 58.967705 12.384222 0.000000 0.000000 0.000000 0.000000 0.000000 0.000000 
